<?xml version="1.0" encoding="UTF-8"?>
<svg xmlns="http://www.w3.org/2000/svg" width="512" height="512" viewBox="0 0 512 512">
  <!-- Fond vert -->
  <rect width="512" height="512" rx="100" fill="#4CAF50"/>
  
  <!-- Flamme au milieu -->
  <path d="M256 100C256 100 300 150 300 200C300 250 270 270 256 270C242 270 212 250 212 200C212 150 256 100 256 100Z" fill="#FF5722"/>
  <path d="M256 120C256 120 290 160 290 200C290 240 270 260 256 260C242 260 222 240 222 200C222 160 256 120 256 120Z" fill="#FFEB3B"/>
  
  <!-- Texte "GS" -->
  <text x="256" y="360" font-family="Arial" font-size="120" font-weight="bold" text-anchor="middle" fill="white">GS</text>
  
  <!-- Cercle de notification (OPTIONNEL) -->
  <circle cx="380" cy="130" r="40" fill="#E53935"/>
  <text x="380" y="145" font-family="Arial" font-size="40" font-weight="bold" text-anchor="middle" fill="white">!</text>
</svg>
