<?xml version="1.0" encoding="UTF-8" standalone="no"?>
<svg width="512" height="512" viewBox="0 0 512 512" fill="none" xmlns="http://www.w3.org/2000/svg">
  <!-- Arrière-plan -->
  <rect width="512" height="512" rx="100" fill="#E63946"/>
  
  <!-- Symbole pompier stylisé -->
  <path d="M256 80C182.1 80 120 142.1 120 216C120 249.5 133.5 282.2 158.4 307.4C168.4 317.4 173.8 323 178.8 335.1L192 379.6V432H320V379.6L333.2 335.1C338.2 323 343.6 317.4 353.6 307.4C378.5 282.2 392 249.5 392 216C392 142.1 329.9 80 256 80Z" fill="white"/>
  
  <!-- Détail du casque -->
  <path d="M192 379.6V432H320V379.6L333.2 335.1C338.2 323 343.6 317.4 353.6 307.4C368 293 378.1 276.2 384 258H128C133.9 276.2 144 293 158.4 307.4C168.4 317.4 173.8 323 178.8 335.1L192 379.6Z" fill="#F1FAEE"/>
  
  <!-- Visière -->
  <path d="M192 380H320V432H192V380Z" fill="#1D3557"/>
</svg>
